<?xml version="1.0" encoding="UTF-8"?>
<!DOCTYPE svg PUBLIC "-//W3C//DTD SVG 1.1//EN" "http://www.w3.org/Graphics/SVG/1.1/DTD/svg11.dtd">
<svg xmlns="http://www.w3.org/2000/svg" version="1.1" width="512px" height="512px" style="shape-rendering:geometricPrecision; text-rendering:geometricPrecision; image-rendering:optimizeQuality; fill-rule:evenodd; clip-rule:evenodd" xmlns:xlink="http://www.w3.org/1999/xlink">
<g><path style="opacity:0.996" fill="#fdd301" d="M 224.5,-0.5 C 229.167,-0.5 233.833,-0.5 238.5,-0.5C 245.341,2.16775 250.508,6.83442 254,13.5C 254.905,29.5195 256.238,45.5195 258,61.5C 263.833,80.6667 276.333,93.1667 295.5,99C 334.155,110.608 372.821,122.108 411.5,133.5C 413.088,139.775 414.588,146.108 416,152.5C 417.451,158.639 416.284,164.139 412.5,169C 410.134,170.233 407.634,171.066 405,171.5C 356.443,157.203 307.943,142.703 259.5,128C 244.286,122.951 233.119,127.451 226,141.5C 222.604,164.873 230.77,183.04 250.5,196C 254.219,198.364 258.219,199.864 262.5,200.5C 268.457,211.954 277.457,220.121 289.5,225C 329.761,237.477 370.094,249.643 410.5,261.5C 414.842,271.042 416.675,281.042 416,291.5C 414.16,296.594 410.493,299.261 405,299.5C 356.443,285.203 307.943,270.703 259.5,256C 242.078,250.627 230.578,256.46 225,273.5C 224.957,317.525 224.29,361.525 223,405.5C 212.669,450.5 184.836,477 139.5,485C 120.251,486.989 101.918,483.822 84.5,475.5C 69.9841,458.293 62.9841,438.293 63.5,415.5C 65.02,372.157 85.6867,341.99 125.5,325C 148.167,317.667 170.833,317.667 193.5,325C 198.198,326.766 202.698,328.933 207,331.5C 207.333,226.5 207.667,121.5 208,16.5C 211.019,8.31563 216.519,2.64896 224.5,-0.5 Z"/></g>
<g><path style="opacity:0.999" fill="#fac600" d="M 411.5,133.5 C 430.617,140.788 442.45,154.455 447,174.5C 447.667,200.167 447.667,225.833 447,251.5C 445.607,254.366 443.274,255.699 440,255.5C 436.726,255.699 434.393,254.366 433,251.5C 432.667,241.5 432.333,231.5 432,221.5C 430.52,204.685 421.687,193.852 405.5,189C 355.511,174.059 305.511,159.225 255.5,144.5C 255.216,158.199 255.716,171.865 257,185.5C 258.15,190.786 259.983,195.786 262.5,200.5C 258.219,199.864 254.219,198.364 250.5,196C 230.77,183.04 222.604,164.873 226,141.5C 233.119,127.451 244.286,122.951 259.5,128C 307.943,142.703 356.443,157.203 405,171.5C 407.634,171.066 410.134,170.233 412.5,169C 416.284,164.139 417.451,158.639 416,152.5C 414.588,146.108 413.088,139.775 411.5,133.5 Z"/></g>
<g><path style="opacity:1" fill="#fac600" d="M 410.5,261.5 C 428.606,267.774 440.44,280.107 446,298.5C 447.626,328.127 447.96,357.793 447,387.5C 442.412,392.743 437.745,392.743 433,387.5C 432.859,372.135 432.192,356.802 431,341.5C 427.094,328.595 418.594,320.428 405.5,317C 355.511,302.059 305.511,287.225 255.5,272.5C 255.667,324.834 255.5,377.168 255,429.5C 245.653,474.68 218.487,502.013 173.5,511.5C 164.167,511.5 154.833,511.5 145.5,511.5C 120.38,507.446 100.046,495.446 84.5,475.5C 101.918,483.822 120.251,486.989 139.5,485C 184.836,477 212.669,450.5 223,405.5C 224.29,361.525 224.957,317.525 225,273.5C 230.578,256.46 242.078,250.627 259.5,256C 307.943,270.703 356.443,285.203 405,299.5C 410.493,299.261 414.16,296.594 416,291.5C 416.675,281.042 414.842,271.042 410.5,261.5 Z"/></g>
</svg>
