<?xml version="1.0" encoding="UTF-8"?>
<!DOCTYPE svg PUBLIC "-//W3C//DTD SVG 1.1//EN" "http://www.w3.org/Graphics/SVG/1.1/DTD/svg11.dtd">
<svg xmlns="http://www.w3.org/2000/svg" version="1.1" width="512px" height="512px" style="shape-rendering:geometricPrecision; text-rendering:geometricPrecision; image-rendering:optimizeQuality; fill-rule:evenodd; clip-rule:evenodd" xmlns:xlink="http://www.w3.org/1999/xlink">
<g><path style="opacity:0.938" fill="#ffcd00" d="M 246.5,-0.5 C 252.5,-0.5 258.5,-0.5 264.5,-0.5C 289.872,8.22555 299.706,25.8922 294,52.5C 288.634,67.4274 278.134,76.0941 262.5,78.5C 262.5,88.8333 262.5,99.1667 262.5,109.5C 297.54,111.614 328.04,124.281 354,147.5C 361.167,140.333 368.333,133.167 375.5,126C 365.1,107.723 366.434,90.3894 379.5,74C 395.639,60.656 412.973,58.9893 431.5,69C 446.629,81.0529 451.796,96.5529 447,115.5C 438.179,136.612 422.346,145.445 399.5,142C 394.208,140.794 389.375,138.628 385,135.5C 377.833,142.667 370.667,149.833 363.5,157C 387.026,183.238 399.693,214.071 401.5,249.5C 411.833,249.5 422.167,249.5 432.5,249.5C 435.062,233.428 444.062,222.595 459.5,217C 485.085,211.801 502.418,221.301 511.5,245.5C 511.5,252.167 511.5,258.833 511.5,265.5C 502.426,289.688 485.093,299.188 459.5,294C 444.062,288.405 435.062,277.572 432.5,261.5C 422.167,261.5 411.833,261.5 401.5,261.5C 399.693,296.929 387.026,327.762 363.5,354C 370.667,361.167 377.833,368.333 385,375.5C 394.856,368.913 405.689,366.746 417.5,369C 437.523,374.539 447.856,387.705 448.5,408.5C 447.123,429.71 436.123,442.877 415.5,448C 391.445,450.06 375.945,439.56 369,416.5C 366.975,405.106 369.141,394.606 375.5,385C 368.333,377.833 361.167,370.667 354,363.5C 328.04,386.719 297.54,399.386 262.5,401.5C 262.5,411.833 262.5,422.167 262.5,432.5C 278.134,434.906 288.634,443.573 294,458.5C 299.706,485.108 289.872,502.774 264.5,511.5C 258.5,511.5 252.5,511.5 246.5,511.5C 222.259,503.036 212.426,486.036 217,460.5C 222.278,444.889 232.944,435.222 249,431.5C 249.5,421.506 249.666,411.506 249.5,401.5C 214.18,399.457 183.347,386.79 157,363.5C 149.833,370.667 142.667,377.833 135.5,385C 146.295,401.798 145.795,418.298 134,434.5C 116.6,450.993 97.7666,452.827 77.5,440C 60.5873,423.496 58.0873,404.996 70,384.5C 83.0226,369.052 99.1892,364.552 118.5,371C 121.249,372.123 123.749,373.623 126,375.5C 133.167,368.333 140.333,361.167 147.5,354C 124.211,327.655 111.544,296.822 109.5,261.5C 99.4778,261.168 89.4778,261.501 79.5,262.5C 74.3404,283.413 61.0071,294.413 39.5,295.5C 18.433,294.321 5.09964,283.654 -0.5,263.5C -0.5,258.167 -0.5,252.833 -0.5,247.5C 5.09964,227.346 18.433,216.679 39.5,215.5C 61.0071,216.587 74.3404,227.587 79.5,248.5C 89.4778,249.499 99.4778,249.832 109.5,249.5C 111.855,214.307 124.522,183.474 147.5,157C 140.333,149.833 133.167,142.667 126,135.5C 116.144,142.087 105.311,144.254 93.5,142C 67.2294,132.461 57.896,114.127 65.5,87C 76.7716,65.6789 94.105,58.3455 117.5,65C 140.179,76.3539 147.679,94.1872 140,118.5C 138.877,121.249 137.377,123.749 135.5,126C 142.667,133.167 149.833,140.333 157,147.5C 183.347,124.21 214.18,111.543 249.5,109.5C 249.666,99.4944 249.5,89.4944 249,79.5C 221.284,71.0759 210.951,52.7426 218,24.5C 223.638,11.6217 233.138,3.28835 246.5,-0.5 Z M 248.5,12.5 C 265.053,10.353 276.22,17.0196 282,32.5C 283.83,55.3355 273.33,66.5022 250.5,66C 231.643,59.4525 225.143,46.6191 231,27.5C 234.889,20.103 240.722,15.103 248.5,12.5 Z M 97.5,75.5 C 116.587,74.585 127.587,83.585 130.5,102.5C 127.323,122.508 115.656,131.341 95.5,129C 81.0084,123.528 74.5084,113.028 76,97.5C 79.3501,86.3177 86.5167,78.9844 97.5,75.5 Z M 402.5,75.5 C 425.341,74.8396 436.174,85.8396 435,108.5C 429.717,124.76 418.55,131.593 401.5,129C 383.621,121.736 377.787,108.903 384,90.5C 388.375,83.2369 394.541,78.2369 402.5,75.5 Z M 245.5,122.5 C 300.253,121.12 342.086,143.454 371,189.5C 398.076,242.623 393.742,292.956 358,340.5C 321.04,381.486 275.54,395.986 221.5,384C 174.498,369.665 143.331,339.165 128,292.5C 114.518,235.95 129.685,188.783 173.5,151C 194.854,134.717 218.854,125.217 245.5,122.5 Z M 253.5,143.5 C 258.392,143.164 259.225,144.497 256,147.5C 253.98,146.968 253.147,145.635 253.5,143.5 Z M 201.5,157.5 C 205.684,158.44 206.184,160.107 203,162.5C 200.389,161.5 199.889,159.833 201.5,157.5 Z M 307.5,157.5 C 310.956,158.536 311.29,160.203 308.5,162.5C 306.296,161.218 305.962,159.551 307.5,157.5 Z M 194.5,194.5 C 235.167,194.5 275.833,194.5 316.5,194.5C 316.5,235.167 316.5,275.833 316.5,316.5C 275.833,316.5 235.167,316.5 194.5,316.5C 194.5,275.833 194.5,235.167 194.5,194.5 Z M 158.5,200.5 C 162.961,201.048 163.461,202.715 160,205.5C 157.527,204.26 157.027,202.593 158.5,200.5 Z M 349.5,200.5 C 354.049,200.932 354.549,202.599 351,205.5C 348.676,204.225 348.176,202.558 349.5,200.5 Z M 223.5,223.5 C 244.833,223.5 266.167,223.5 287.5,223.5C 287.5,244.833 287.5,266.167 287.5,287.5C 266.167,287.5 244.833,287.5 223.5,287.5C 223.5,266.167 223.5,244.833 223.5,223.5 Z M 33.5,228.5 C 56.3101,227.81 67.1435,238.81 66,261.5C 60.8859,277.264 50.0526,284.097 33.5,282C 17.7361,276.886 10.9028,266.053 13,249.5C 16.0161,238.652 22.8495,231.652 33.5,228.5 Z M 465.5,228.5 C 484.864,227.031 496.198,235.864 499.5,255C 496.679,274.828 485.346,283.828 465.5,282C 445.868,273.77 440.368,259.937 449,240.5C 453.281,234.705 458.781,230.705 465.5,228.5 Z M 143.5,253.5 C 144.833,253.5 146.167,253.5 147.5,253.5C 147.5,254.833 147.5,256.167 147.5,257.5C 146.167,257.5 144.833,257.5 143.5,257.5C 143.5,256.167 143.5,254.833 143.5,253.5 Z M 364.5,253.5 C 367.166,253.066 368.333,254.066 368,256.5C 364.403,258.066 363.237,257.066 364.5,253.5 Z M 159.5,305.5 C 163.234,306.974 163.4,308.64 160,310.5C 156.927,309.252 156.76,307.585 159.5,305.5 Z M 350.5,305.5 C 354.016,307.118 354.183,308.785 351,310.5C 347.927,309.252 347.76,307.585 350.5,305.5 Z M 201.5,348.5 C 205.934,349.558 206.267,351.225 202.5,353.5C 200.296,352.218 199.962,350.551 201.5,348.5 Z M 307.5,348.5 C 310.956,349.536 311.29,351.203 308.5,353.5C 306.296,352.218 305.962,350.551 307.5,348.5 Z M 254.5,363.5 C 255.5,363.5 256.5,363.5 257.5,363.5C 257.5,364.833 257.5,366.167 257.5,367.5C 256.167,367.5 254.833,367.5 253.5,367.5C 253.433,366.041 253.766,364.708 254.5,363.5 Z M 95.5,381.5 C 115.636,379.645 127.302,388.645 130.5,408.5C 127.611,427.565 116.611,436.398 97.5,435C 81.6135,430.448 74.4469,419.948 76,403.5C 78.507,392.5 85.007,385.167 95.5,381.5 Z M 401.5,381.5 C 424.821,380.322 435.988,391.322 435,414.5C 429.778,430.036 418.945,436.87 402.5,435C 386.948,429.741 380.115,418.907 382,402.5C 384.923,392.08 391.423,385.08 401.5,381.5 Z M 250.5,444.5 C 273.305,444.471 283.805,455.804 282,478.5C 275.166,495.5 262.999,501.667 245.5,497C 228.653,487.456 224.486,473.956 233,456.5C 237.429,450.375 243.262,446.375 250.5,444.5 Z"/></g>
<g><path style="opacity:0.939" fill="#ffcd00" d="M 255.5,129.5 C 265.134,130.467 270.467,135.801 271.5,145.5C 270.943,151.625 268.109,156.292 263,159.5C 262.5,166.826 262.334,174.159 262.5,181.5C 266.167,181.5 269.833,181.5 273.5,181.5C 273.334,176.821 273.501,172.155 274,167.5C 279.488,163.331 285.655,160.497 292.5,159C 295.026,148.405 301.692,143.738 312.5,145C 323.745,150.068 326.579,158.234 321,169.5C 313.429,176.715 305.262,177.382 296.5,171.5C 293.279,172.907 289.945,173.907 286.5,174.5C 286.5,176.833 286.5,179.167 286.5,181.5C 299.837,181.333 313.171,181.5 326.5,182C 327.333,182.833 328.167,183.667 329,184.5C 329.5,198.163 329.667,211.829 329.5,225.5C 331.833,225.5 334.167,225.5 336.5,225.5C 337.137,221.422 338.47,217.589 340.5,214C 333.61,205.758 333.943,197.758 341.5,190C 358.276,183.962 366.442,189.796 366,207.5C 363.431,213.572 358.931,217.238 352.5,218.5C 350.788,224.986 348.121,230.986 344.5,236.5C 339.667,238.243 334.667,238.91 329.5,238.5C 329.5,242.167 329.5,245.833 329.5,249.5C 336.841,249.666 344.174,249.5 351.5,249C 356.016,241.267 362.682,238.6 371.5,241C 381.606,246.992 383.772,255.159 378,265.5C 371.964,270.722 365.131,271.889 357.5,269C 355.126,266.961 353.126,264.628 351.5,262C 344.174,261.5 336.841,261.334 329.5,261.5C 329.5,265.167 329.5,268.833 329.5,272.5C 334.667,272.09 339.667,272.757 344.5,274.5C 348.121,280.014 350.788,286.014 352.5,292.5C 365.467,296.552 369.3,304.885 364,317.5C 355.946,325.081 347.613,325.414 339,318.5C 333.952,310.869 334.452,303.702 340.5,297C 338.47,293.411 337.137,289.578 336.5,285.5C 334.167,285.5 331.833,285.5 329.5,285.5C 329.667,299.171 329.5,312.837 329,326.5C 328.167,327.333 327.333,328.167 326.5,329C 313.171,329.5 299.837,329.667 286.5,329.5C 286.5,331.833 286.5,334.167 286.5,336.5C 289.945,337.093 293.279,338.093 296.5,339.5C 310.755,331.746 320.089,335.579 324.5,351C 322,364.085 314.334,368.752 301.5,365C 296.674,362.194 293.674,358.028 292.5,352.5C 288.616,350.705 284.616,349.205 280.5,348C 277.898,347.117 275.731,345.617 274,343.5C 273.501,338.845 273.334,334.179 273.5,329.5C 269.833,329.5 266.167,329.5 262.5,329.5C 262.334,336.841 262.5,344.174 263,351.5C 271.625,358.007 273.292,366.007 268,375.5C 261.868,381.195 255.035,382.361 247.5,379C 240.086,372.705 238.586,365.205 243,356.5C 244.708,354.457 246.708,352.79 249,351.5C 249.5,344.174 249.666,336.841 249.5,329.5C 245.833,329.5 242.167,329.5 238.5,329.5C 238.986,334.699 238.319,339.699 236.5,344.5C 231.193,347.664 225.526,350.164 219.5,352C 214.66,365.836 205.66,369.503 192.5,363C 185.833,355 185.833,347 192.5,339C 199.931,334.251 207.264,334.417 214.5,339.5C 218.206,338.654 221.706,337.321 225,335.5C 225.495,333.527 225.662,331.527 225.5,329.5C 211.402,329.965 197.402,329.465 183.5,328C 182.874,327.25 182.374,326.416 182,325.5C 181.5,312.171 181.333,298.837 181.5,285.5C 179.208,285.244 177.041,285.577 175,286.5C 173.833,290 172.667,293.5 171.5,297C 177.378,305.554 176.711,313.554 169.5,321C 155.718,326.863 147.385,322.53 144.5,308C 145.567,299.267 150.401,294.1 159,292.5C 160.643,285.718 163.476,279.552 167.5,274C 172.066,272.691 176.733,272.191 181.5,272.5C 181.5,268.833 181.5,265.167 181.5,261.5C 174.137,261.169 166.803,261.503 159.5,262.5C 154.125,270.551 146.792,272.717 137.5,269C 130.497,263.254 128.664,256.087 132,247.5C 139.136,239.555 147.303,238.389 156.5,244C 157.376,245.586 158.376,247.086 159.5,248.5C 166.803,249.497 174.137,249.831 181.5,249.5C 181.5,245.833 181.5,242.167 181.5,238.5C 176.733,238.809 172.066,238.309 167.5,237C 163.476,231.448 160.643,225.282 159,218.5C 146.468,214.769 142.468,206.769 147,194.5C 153.167,187.089 160.667,185.589 169.5,190C 176.711,197.446 177.378,205.446 171.5,214C 172.667,217.5 173.833,221 175,224.5C 177.041,225.423 179.208,225.756 181.5,225.5C 181.035,211.402 181.535,197.402 183,183.5C 183.75,182.874 184.584,182.374 185.5,182C 198.829,181.5 212.163,181.333 225.5,181.5C 225.662,179.473 225.495,177.473 225,175.5C 219.14,170.883 213.306,170.716 207.5,175C 191.326,175.843 185.16,168.343 189,152.5C 197.566,142.224 206.566,141.891 216,151.5C 216.797,154.22 217.963,156.72 219.5,159C 225.526,160.836 231.193,163.336 236.5,166.5C 238.319,171.301 238.986,176.301 238.5,181.5C 242.167,181.5 245.833,181.5 249.5,181.5C 249.666,174.159 249.5,166.826 249,159.5C 241.676,155.179 239.009,148.846 241,140.5C 243.777,133.864 248.61,130.197 255.5,129.5 Z M 253.5,143.5 C 253.147,145.635 253.98,146.968 256,147.5C 259.225,144.497 258.392,143.164 253.5,143.5 Z M 201.5,157.5 C 199.889,159.833 200.389,161.5 203,162.5C 206.184,160.107 205.684,158.44 201.5,157.5 Z M 307.5,157.5 C 305.962,159.551 306.296,161.218 308.5,162.5C 311.29,160.203 310.956,158.536 307.5,157.5 Z M 194.5,194.5 C 194.5,235.167 194.5,275.833 194.5,316.5C 235.167,316.5 275.833,316.5 316.5,316.5C 316.5,275.833 316.5,235.167 316.5,194.5C 275.833,194.5 235.167,194.5 194.5,194.5 Z M 158.5,200.5 C 157.027,202.593 157.527,204.26 160,205.5C 163.461,202.715 162.961,201.048 158.5,200.5 Z M 349.5,200.5 C 348.176,202.558 348.676,204.225 351,205.5C 354.549,202.599 354.049,200.932 349.5,200.5 Z M 223.5,223.5 C 223.5,244.833 223.5,266.167 223.5,287.5C 244.833,287.5 266.167,287.5 287.5,287.5C 287.5,266.167 287.5,244.833 287.5,223.5C 266.167,223.5 244.833,223.5 223.5,223.5 Z M 143.5,253.5 C 143.5,254.833 143.5,256.167 143.5,257.5C 144.833,257.5 146.167,257.5 147.5,257.5C 147.5,256.167 147.5,254.833 147.5,253.5C 146.167,253.5 144.833,253.5 143.5,253.5 Z M 364.5,253.5 C 363.237,257.066 364.403,258.066 368,256.5C 368.333,254.066 367.166,253.066 364.5,253.5 Z M 159.5,305.5 C 156.76,307.585 156.927,309.252 160,310.5C 163.4,308.64 163.234,306.974 159.5,305.5 Z M 350.5,305.5 C 347.76,307.585 347.927,309.252 351,310.5C 354.183,308.785 354.016,307.118 350.5,305.5 Z M 201.5,348.5 C 199.962,350.551 200.296,352.218 202.5,353.5C 206.267,351.225 205.934,349.558 201.5,348.5 Z M 307.5,348.5 C 305.962,350.551 306.296,352.218 308.5,353.5C 311.29,351.203 310.956,349.536 307.5,348.5 Z M 254.5,363.5 C 253.766,364.708 253.433,366.041 253.5,367.5C 254.833,367.5 256.167,367.5 257.5,367.5C 257.5,366.167 257.5,364.833 257.5,363.5C 256.5,363.5 255.5,363.5 254.5,363.5 Z"/></g>
<g><path style="opacity:0.924" fill="#ffcd00" d="M 214.5,210.5 C 242.169,210.333 269.835,210.5 297.5,211C 298.333,211.833 299.167,212.667 300,213.5C 300.667,241.5 300.667,269.5 300,297.5C 299.167,298.333 298.333,299.167 297.5,300C 269.833,300.667 242.167,300.667 214.5,300C 213.584,299.626 212.75,299.126 212,298.5C 210.351,270.587 210.017,242.587 211,214.5C 211.69,212.65 212.856,211.316 214.5,210.5 Z M 223.5,223.5 C 223.5,244.833 223.5,266.167 223.5,287.5C 244.833,287.5 266.167,287.5 287.5,287.5C 287.5,266.167 287.5,244.833 287.5,223.5C 266.167,223.5 244.833,223.5 223.5,223.5 Z"/></g>
</svg>
